<?xml version="1.0" standalone="no"?>
<!DOCTYPE svg PUBLIC "-//W3C//DTD SVG 20010904//EN"
 "http://www.w3.org/TR/2001/REC-SVG-20010904/DTD/svg10.dtd">
<svg version="1.0" xmlns="http://www.w3.org/2000/svg"
 width="2429.000000pt" height="2429.000000pt" viewBox="0 0 2429.000000 2429.000000"
 preserveAspectRatio="xMidYMid meet">
<metadata>
Created by potrace 1.11, written by Peter Selinger 2001-2013
</metadata>
<g transform="translate(0.000000,2429.000000) scale(0.100000,-0.100000)"
fill="#000000" stroke="none">
<path d="M2143 16703 c2 -4174 6 -7610 9 -7638 3 -27 9 -95 13 -150 4 -55 9
-113 11 -130 2 -16 6 -64 9 -105 4 -41 8 -86 10 -100 2 -14 11 -81 20 -150 21
-170 20 -166 49 -341 14 -85 39 -221 56 -304 17 -82 34 -163 36 -180 25 -143
163 -641 259 -930 70 -210 212 -584 270 -710 7 -16 43 -97 80 -180 69 -155
245 -507 315 -630 22 -38 44 -80 50 -92 5 -12 27 -51 48 -85 21 -35 69 -115
107 -178 62 -104 190 -305 235 -371 10 -14 49 -71 86 -125 107 -156 261 -361
430 -573 27 -34 188 -226 193 -231 3 -3 35 -39 71 -80 223 -258 600 -635 860
-861 47 -41 87 -76 90 -79 80 -81 564 -460 780 -609 199 -138 525 -351 537
-351 3 0 21 -11 39 -25 18 -14 36 -25 41 -25 5 0 26 -12 48 -27 22 -15 72 -45
110 -66 39 -22 93 -52 120 -67 698 -389 1425 -688 2227 -915 112 -31 490 -125
558 -139 14 -2 93 -19 175 -36 83 -17 166 -33 185 -36 19 -2 55 -9 80 -14 25
-5 68 -12 95 -16 28 -4 55 -8 62 -10 19 -3 94 -14 138 -20 22 -2 65 -9 95 -14
30 -5 82 -11 115 -15 33 -3 71 -8 85 -10 14 -2 52 -6 85 -10 33 -3 78 -8 100
-11 43 -5 102 -9 235 -19 47 -3 110 -8 140 -10 320 -23 997 -23 1295 0 28 2
93 7 145 10 52 3 109 8 125 10 17 2 65 7 107 10 43 4 92 8 110 11 18 2 56 6
83 9 77 8 139 16 235 30 14 2 45 7 70 10 25 3 52 8 60 10 8 2 37 6 64 10 27 3
87 13 135 21 47 9 100 18 116 21 17 3 84 16 150 30 66 13 131 26 145 29 14 2
36 7 50 10 14 3 32 7 40 9 8 2 47 11 85 20 39 9 77 18 85 20 75 17 273 69 345
90 50 14 98 28 108 30 25 6 183 53 237 72 25 8 52 16 60 18 17 4 234 79 349
120 499 178 1140 477 1596 743 72 42 141 82 155 89 14 8 37 22 52 31 14 9 48
30 75 46 166 99 534 351 732 500 51 39 105 80 120 91 25 19 207 164 246 196
41 34 191 162 225 192 103 90 137 121 264 241 284 267 570 568 771 810 22 27
45 54 50 60 50 55 354 447 407 526 16 23 120 171 147 209 28 39 201 303 201
306 0 2 27 48 61 101 63 101 155 259 206 354 17 30 44 80 61 111 16 30 56 107
87 170 31 63 70 139 85 169 16 30 58 123 95 205 36 83 72 164 80 180 7 17 30
71 50 120 20 50 42 104 50 120 7 17 32 82 55 145 23 63 46 126 52 140 62 152
254 801 293 988 2 10 15 69 29 132 14 63 27 126 30 140 2 14 15 84 29 155 14
72 28 148 32 170 7 48 24 160 30 195 2 14 7 48 10 75 4 28 8 61 10 75 2 14 6
50 10 80 4 30 8 66 10 80 2 14 7 61 10 105 4 44 11 114 15 155 5 41 9 3534 9
7763 l1 7687 -10000 0 -10000 0 3 -7587z"/>
</g>
</svg>
